<?xml version="1.0" encoding="utf-8"?>
<!-- Generator: Adobe Illustrator 25.0.0, SVG Export Plug-In . SVG Version: 6.00 Build 0)  -->
<svg version="1.1" id="Capa_1" xmlns="http://www.w3.org/2000/svg" xmlns:xlink="http://www.w3.org/1999/xlink" x="0px" y="0px"
	 viewBox="0 0 469.3 469.3" style="enable-background:new 0 0 469.3 469.3;" xml:space="preserve">
<style type="text/css">
	.st0{fill:#00B0FF;}
</style>
<path class="st0" d="M234.7,170.7c-35.3,0-64,28.7-64,64s28.7,64,64,64s64-28.7,64-64l0,0C298.7,199.3,270,170.7,234.7,170.7z"/>
<path class="st0" d="M234.7,74.7C128,74.7,36.9,141,0,234.7c36.9,93.7,128,160,234.7,160s197.8-66.4,234.7-160
	C432.4,141,341.4,74.7,234.7,74.7z M234.7,341.3c-58.9,0-106.7-47.7-106.7-106.7c0-58.9,47.7-106.7,106.7-106.7
	c58.9,0,106.7,47.7,106.7,106.7c0,0,0,0,0,0C341.3,293.6,293.6,341.3,234.7,341.3L234.7,341.3z"/>
</svg>
